<svg xmlns="http://www.w3.org/2000/svg" version="1.1" xmlns:xlink="http://www.w3.org/1999/xlink" xmlns:svgjs="http://svgjs.dev/svgjs" width="1500" height="1518" viewBox="0 0 1500 1518"><g transform="matrix(1,0,0,1,1.3259016393440106,0.6145748987853494)"><svg viewBox="0 0 244 247" data-background-color="#ffffff" preserveAspectRatio="xMidYMid meet" height="1518" width="1500" xmlns="http://www.w3.org/2000/svg" xmlns:xlink="http://www.w3.org/1999/xlink"><g id="tight-bounds" transform="matrix(1,0,0,1,-0.21567999999996346,-0.09999999999999432)"><svg viewBox="0 0 244.43135999999996 247.2" height="247.2" width="244.43135999999996"><rect width="244.43135999999996" height="247.2" fill="url(#5de075aa-79b1-4578-af48-5671e09b0316)" mask="url(#4a138708-7e70-4e26-aff2-1754f9215384)" data-fill-palette-color="tertiary"></rect><g><svg></svg></g><g><svg viewBox="0 0 244.43135999999996 247.2" height="247.2" width="244.43135999999996"><g transform="matrix(1,0,0,1,0,79.62902252505344)"><svg viewBox="0 0 244.43135999999996 87.94195494989309" height="87.94195494989309" width="244.43135999999996"><g><svg viewBox="0 0 245.65351679999995 88.38166472464255" height="87.94195494989309" width="244.43135999999996"><g><rect width="245.65351679999995" height="2.7070136591621345" x="0" y="48.57067762944241" fill="#ef5b2a" opacity="1" stroke-width="0" stroke="transparent" fill-opacity="1" class="rect-qz-0" data-fill-palette-color="secondary" rx="1%" id="qz-0" data-palette-color="#ef5b2a"></rect></g><g transform="matrix(1,0,0,1,0.6110783999999825,58.36411448012846)"><svg viewBox="0 0 244.43135999999998 30.017550244514105" height="30.017550244514105" width="244.43135999999998"><g id="textblocktransform"><svg viewBox="0 0 244.43135999999998 30.017550244514105" height="30.017550244514105" width="244.43135999999998" id="textblock"><g><svg viewBox="0 0 244.43135999999998 30.017550244514105" height="30.017550244514105" width="244.43135999999998"><g transform="matrix(1,0,0,1,0,0)"><svg width="244.43135999999998" viewBox="4.03 -37.77 311.5 38.260000000000005" height="30.017550244514105" data-palette-color="#ef5b2a"><path d="M9.3 0L4.03 0 6.76-35.77 15.63-35.77 23.29-12.92 24.66-7.59 25.15-7.59 26.54-12.92 34.23-35.77 43.33-35.77 46.09 0 39.84 0 38.18-26.73 38.04-32.3 37.55-32.3 36.08-26.98 27.37-0.73 21.85-0.73 13.06-26.93 11.55-32.3 11.06-32.3 10.94-26.78 9.3 0ZM64.99 0.49L64.99 0.49Q61.94 0.49 59.6-0.54 57.27-1.56 55.69-3.31 54.1-5.05 53.28-7.35 52.46-9.64 52.46-12.21L52.46-12.21Q52.46-15.16 53.51-17.74 54.56-20.31 56.46-22.23 58.35-24.15 60.96-25.26 63.57-26.37 66.7-26.37L66.7-26.37Q69.75-26.37 72.09-25.34 74.44-24.32 76.02-22.56 77.61-20.8 78.43-18.49 79.25-16.19 79.25-13.62L79.25-13.62Q79.25-10.64 78.18-8.07 77.12-5.49 75.22-3.59 73.31-1.68 70.7-0.6 68.09 0.49 64.99 0.49ZM66.01-3.74L66.01-3.74Q67.58-3.74 68.87-4.38 70.16-5.03 71.09-6.19 72.02-7.35 72.53-8.96 73.04-10.57 73.04-12.52L73.04-12.52Q73.04-14.43 72.54-16.16 72.04-17.9 71.09-19.23 70.14-20.56 68.77-21.35 67.4-22.14 65.67-22.14L65.67-22.14Q64.08-22.14 62.79-21.48 61.5-20.83 60.58-19.65 59.67-18.48 59.15-16.86 58.64-15.23 58.64-13.31L58.64-13.31Q58.64-11.38 59.14-9.64 59.64-7.91 60.59-6.59 61.55-5.27 62.91-4.5 64.28-3.74 66.01-3.74ZM91.79 0L82.54-25.88 89.08-25.88 94.18-8.98 95.23-4.49 95.72-4.49 96.72-8.98 101.9-25.88 107.49-25.88 98.21 0 91.79 0ZM112.81 0L112.81-25.88 118.74-25.88 118.74 0 112.81 0ZM115.76-30.98L115.76-30.98Q114.98-30.98 114.34-31.24 113.69-31.49 113.21-31.93 112.74-32.37 112.48-32.98 112.22-33.59 112.22-34.3L112.22-34.3Q112.22-35.03 112.5-35.66 112.79-36.28 113.29-36.76 113.79-37.23 114.46-37.5 115.13-37.77 115.91-37.77L115.91-37.77Q116.67-37.77 117.3-37.5 117.94-37.23 118.4-36.78 118.86-36.33 119.13-35.71 119.4-35.08 119.4-34.38L119.4-34.38Q119.4-33.64 119.12-33.02 118.84-32.4 118.34-31.95 117.84-31.49 117.18-31.24 116.52-30.98 115.76-30.98ZM148.11-5.32L148.11-2.37Q147.04-1.61 145.79-1.07 144.55-0.54 143.23-0.18 141.91 0.17 140.6 0.33 139.3 0.49 138.12 0.49L138.12 0.49Q135.41 0.49 133.08-0.34 130.75-1.17 129.03-2.78 127.31-4.39 126.33-6.75 125.36-9.11 125.36-12.16L125.36-12.16Q125.36-15.41 126.45-18.04 127.55-20.68 129.4-22.52 131.24-24.37 133.67-25.37 136.1-26.37 138.74-26.37L138.74-26.37Q140.93-26.37 142.82-25.65 144.72-24.93 146.1-23.51 147.48-22.09 148.26-19.97 149.04-17.85 149.04-15.04L149.04-15.04Q149.04-14.36 148.98-13.59 148.92-12.82 148.77-12.08L148.77-12.08 131.48-12.08Q131.48-10.11 132.18-8.59 132.88-7.08 134.15-6.07 135.41-5.05 137.2-4.53 138.98-4 141.13-4L141.13-4Q141.74-4 142.56-4.05 143.37-4.1 144.3-4.25 145.23-4.39 146.21-4.65 147.18-4.91 148.11-5.32L148.11-5.32ZM131.48-14.97L143.54-14.97Q143.54-16.75 143.09-18.09 142.64-19.43 141.86-20.34 141.08-21.24 140.04-21.69 139-22.14 137.81-22.14L137.81-22.14Q136.46-22.14 135.32-21.61 134.17-21.07 133.32-20.1 132.46-19.14 131.97-17.82 131.48-16.5 131.48-14.97L131.48-14.97ZM173.45 0L167.39 0 167.39-35.77 173.45-35.77 173.45-20.75 191.22-20.75 191.22-35.77 197.28-35.77 197.28 0 191.22 0 191.22-16.46 173.45-16.46 173.45 0ZM217.32 0.49L217.32 0.49Q214.26 0.49 211.93-0.54 209.6-1.56 208.01-3.31 206.43-5.05 205.61-7.35 204.79-9.64 204.79-12.21L204.79-12.21Q204.79-15.16 205.84-17.74 206.89-20.31 208.78-22.23 210.68-24.15 213.29-25.26 215.9-26.37 219.03-26.37L219.03-26.37Q222.08-26.37 224.42-25.34 226.76-24.32 228.35-22.56 229.94-20.8 230.76-18.49 231.57-16.19 231.57-13.62L231.57-13.62Q231.57-10.64 230.51-8.07 229.45-5.49 227.55-3.59 225.64-1.68 223.03-0.6 220.42 0.49 217.32 0.49ZM218.34-3.74L218.34-3.74Q219.9-3.74 221.2-4.38 222.49-5.03 223.42-6.19 224.35-7.35 224.86-8.96 225.37-10.57 225.37-12.52L225.37-12.52Q225.37-14.43 224.87-16.16 224.37-17.9 223.42-19.23 222.47-20.56 221.1-21.35 219.73-22.14 218-22.14L218-22.14Q216.41-22.14 215.12-21.48 213.83-20.83 212.91-19.65 211.99-18.48 211.48-16.86 210.97-15.23 210.97-13.31L210.97-13.31Q210.97-11.38 211.47-9.64 211.97-7.91 212.92-6.59 213.87-5.27 215.24-4.5 216.61-3.74 218.34-3.74ZM238.16-8.62L238.16-25.88 244.07-25.88 244.07-9.55Q244.07-8.3 244.41-7.29 244.76-6.27 245.37-5.54 245.98-4.81 246.83-4.41 247.69-4 248.71-4L248.71-4Q249.59-4 250.43-4.3 251.27-4.59 252.06-5.07 252.84-5.54 253.54-6.16 254.25-6.79 254.89-7.47L254.89-7.47 254.89-25.88 260.8-25.88 260.8 0 256.01 0 255.13-4.37Q254.25-3.56 253.23-2.7 252.2-1.83 251.05-1.12 249.91-0.42 248.63 0.04 247.34 0.49 245.95 0.49L245.95 0.49Q244.36 0.49 242.95-0.15 241.53-0.78 240.47-1.95 239.41-3.13 238.79-4.81 238.16-6.49 238.16-8.62L238.16-8.62ZM267.31-1.22L268.36-5.66 268.8-5.93Q269.75-5.42 270.79-5 271.83-4.59 272.85-4.31 273.88-4.03 274.86-3.88 275.83-3.74 276.69-3.74L276.69-3.74Q278.91-3.74 280.17-4.66 281.42-5.59 281.42-7.03L281.42-7.03Q281.42-8.01 280.85-8.64 280.28-9.28 279.34-9.73 278.4-10.18 277.2-10.52 276-10.86 274.75-11.24 273.49-11.62 272.29-12.11 271.1-12.6 270.16-13.35 269.22-14.11 268.64-15.2 268.07-16.28 268.07-17.87L268.07-17.87Q268.07-19.65 268.84-21.22 269.61-22.78 271.03-23.91 272.46-25.05 274.5-25.71 276.54-26.37 279.08-26.37L279.08-26.37Q279.71-26.37 280.56-26.32 281.4-26.27 282.31-26.16 283.23-26.05 284.16-25.88 285.08-25.71 285.89-25.44L285.89-25.44 284.82-21.07 284.28-20.75Q283.55-21.12 282.7-21.39 281.86-21.66 281.02-21.81 280.18-21.97 279.38-22.06 278.59-22.14 277.98-22.14L277.98-22.14Q275.83-22.14 274.62-21.29 273.42-20.43 273.42-18.99L273.42-18.99Q273.42-17.99 274-17.35 274.59-16.7 275.53-16.25 276.47-15.8 277.69-15.47 278.91-15.14 280.17-14.76 281.42-14.38 282.64-13.89 283.86-13.4 284.8-12.65 285.74-11.89 286.33-10.79 286.92-9.69 286.92-8.08L286.92-8.08Q286.92-6.27 286.13-4.7 285.35-3.13 283.91-1.98 282.47-0.83 280.45-0.17 278.42 0.49 275.95 0.49L275.95 0.49Q273.93 0.49 271.66 0.05 269.39-0.39 267.31-1.22L267.31-1.22ZM314.6-5.32L314.6-2.37Q313.52-1.61 312.28-1.07 311.03-0.54 309.72-0.18 308.4 0.17 307.09 0.33 305.79 0.49 304.61 0.49L304.61 0.49Q301.9 0.49 299.57-0.34 297.24-1.17 295.52-2.78 293.8-4.39 292.82-6.75 291.85-9.11 291.85-12.16L291.85-12.16Q291.85-15.41 292.94-18.04 294.04-20.68 295.89-22.52 297.73-24.37 300.16-25.37 302.59-26.37 305.22-26.37L305.22-26.37Q307.42-26.37 309.31-25.65 311.21-24.93 312.58-23.51 313.96-22.09 314.75-19.97 315.53-17.85 315.53-15.04L315.53-15.04Q315.53-14.36 315.47-13.59 315.4-12.82 315.26-12.08L315.26-12.08 297.97-12.08Q297.97-10.11 298.67-8.59 299.36-7.08 300.63-6.07 301.9-5.05 303.69-4.53 305.47-4 307.62-4L307.62-4Q308.23-4 309.04-4.05 309.86-4.1 310.79-4.25 311.72-4.39 312.69-4.65 313.67-4.91 314.6-5.32L314.6-5.32ZM297.97-14.97L310.03-14.97Q310.03-16.75 309.58-18.09 309.13-19.43 308.35-20.34 307.57-21.24 306.53-21.69 305.49-22.14 304.3-22.14L304.3-22.14Q302.95-22.14 301.81-21.61 300.66-21.07 299.8-20.1 298.95-19.14 298.46-17.82 297.97-16.5 297.97-14.97L297.97-14.97Z" opacity="1" transform="matrix(1,0,0,1,0,0)" fill="#ef5b2a" class="wordmark-text-0" data-fill-palette-color="primary" id="text-0"></path></svg></g></svg></g></svg></g></svg></g><g transform="matrix(1,0,0,1,94.08002181943651,0)"><svg viewBox="0 0 57.493473161126936 41.484254437918494" height="41.484254437918494" width="57.493473161126936"><g><svg xmlns="http://www.w3.org/2000/svg" xmlns:xlink="http://www.w3.org/1999/xlink" version="1.1" x="8" y="0" viewBox="13.991999999999997 14 72.01600000000002 72" enable-background="new 0 0 100 100" xml:space="preserve" height="41.484254437918494" width="41.493473161126936" class="icon-icon-0" data-fill-palette-color="accent" id="icon-0"></svg></g></svg></g><g><rect width="46.782553659436516" height="2.7070136591621345" y="37.77724077875636" x="151.57349498056345" fill="#ef5b2a" data-fill-palette-color="secondary"></rect><rect width="46.782553659436516" height="2.7070136591621345" y="37.77724077875636" x="47.297468159999994" fill="#ef5b2a" data-fill-palette-color="secondary"></rect></g></svg></g></svg></g><path d="M0 73.629L0 1 244.431 1 244.431 73.629 241.738 73.629 241.738 3.694 2.694 3.694 2.694 73.629 0 73.629M0 173.571L0 246.2 244.431 246.2 244.431 173.571 241.738 173.571 241.738 243.506 2.694 243.506 2.694 173.571 0 173.571" fill="url(#5de075aa-79b1-4578-af48-5671e09b0316)" stroke="transparent" data-fill-palette-color="tertiary"></path></svg></g><defs></defs><mask id="fb95c1c9-ec02-4717-8584-b3385d355db6"><g id="SvgjsG1100"><svg viewBox="0 0 244.43135999999996 247.2" height="247.2" width="244.43135999999996"><g><svg></svg></g><g><svg viewBox="0 0 244.43135999999996 247.2" height="247.2" width="244.43135999999996"><g transform="matrix(1,0,0,1,0,79.62902252505344)"><svg viewBox="0 0 244.43135999999996 87.94195494989309" height="87.94195494989309" width="244.43135999999996"><g><svg viewBox="0 0 245.65351679999995 88.38166472464255" height="87.94195494989309" width="244.43135999999996"><g><rect width="245.65351679999995" height="2.7070136591621345" x="0" y="48.57067762944241" fill="black" opacity="1" stroke-width="0" stroke="transparent" fill-opacity="1" class="rect-qz-0" rx="1%" id="SvgjsRect1099" data-palette-color="#ef5b2a"></rect></g><g transform="matrix(1,0,0,1,0.6110783999999825,58.36411448012846)"><svg viewBox="0 0 244.43135999999998 30.017550244514105" height="30.017550244514105" width="244.43135999999998"><g id="SvgjsG1098"><svg viewBox="0 0 244.43135999999998 30.017550244514105" height="30.017550244514105" width="244.43135999999998" id="SvgjsSvg1097"><g><svg viewBox="0 0 244.43135999999998 30.017550244514105" height="30.017550244514105" width="244.43135999999998"><g transform="matrix(1,0,0,1,0,0)"><svg width="244.43135999999998" viewBox="4.03 -37.77 311.5 38.260000000000005" height="30.017550244514105" data-palette-color="#ef5b2a"><path d="M9.3 0L4.03 0 6.76-35.77 15.63-35.77 23.29-12.92 24.66-7.59 25.15-7.59 26.54-12.92 34.23-35.77 43.33-35.77 46.09 0 39.84 0 38.18-26.73 38.04-32.3 37.55-32.3 36.08-26.98 27.37-0.73 21.85-0.73 13.06-26.93 11.55-32.3 11.06-32.3 10.94-26.78 9.3 0ZM64.99 0.49L64.99 0.49Q61.94 0.49 59.6-0.54 57.27-1.56 55.69-3.31 54.1-5.05 53.28-7.35 52.46-9.64 52.46-12.21L52.46-12.21Q52.46-15.16 53.51-17.74 54.56-20.31 56.46-22.23 58.35-24.15 60.96-25.26 63.57-26.37 66.7-26.37L66.7-26.37Q69.75-26.37 72.09-25.34 74.44-24.32 76.02-22.56 77.61-20.8 78.43-18.49 79.25-16.19 79.25-13.62L79.25-13.62Q79.25-10.64 78.18-8.07 77.12-5.49 75.22-3.59 73.31-1.68 70.7-0.6 68.09 0.49 64.99 0.49ZM66.01-3.74L66.01-3.74Q67.58-3.74 68.87-4.38 70.16-5.03 71.09-6.19 72.02-7.35 72.53-8.96 73.04-10.57 73.04-12.52L73.04-12.52Q73.04-14.43 72.54-16.16 72.04-17.9 71.09-19.23 70.14-20.56 68.77-21.35 67.4-22.14 65.67-22.14L65.67-22.14Q64.08-22.14 62.79-21.48 61.5-20.83 60.58-19.65 59.67-18.48 59.15-16.86 58.64-15.23 58.64-13.31L58.64-13.31Q58.64-11.38 59.14-9.64 59.64-7.91 60.59-6.59 61.55-5.27 62.91-4.5 64.28-3.74 66.01-3.74ZM91.79 0L82.54-25.88 89.08-25.88 94.18-8.98 95.23-4.49 95.72-4.49 96.72-8.98 101.9-25.88 107.49-25.88 98.21 0 91.79 0ZM112.81 0L112.81-25.88 118.74-25.88 118.74 0 112.81 0ZM115.76-30.98L115.76-30.98Q114.98-30.98 114.34-31.24 113.69-31.49 113.21-31.93 112.74-32.37 112.48-32.98 112.22-33.59 112.22-34.3L112.22-34.3Q112.22-35.03 112.5-35.66 112.79-36.28 113.29-36.76 113.79-37.23 114.46-37.5 115.13-37.77 115.91-37.77L115.91-37.77Q116.67-37.77 117.3-37.5 117.94-37.23 118.4-36.78 118.86-36.33 119.13-35.71 119.4-35.08 119.4-34.38L119.4-34.38Q119.4-33.64 119.12-33.02 118.84-32.4 118.34-31.95 117.84-31.49 117.18-31.24 116.52-30.98 115.76-30.98ZM148.11-5.32L148.11-2.37Q147.04-1.61 145.79-1.07 144.55-0.54 143.23-0.18 141.91 0.17 140.6 0.33 139.3 0.49 138.12 0.49L138.12 0.49Q135.41 0.49 133.08-0.34 130.75-1.17 129.03-2.78 127.31-4.39 126.33-6.75 125.36-9.11 125.36-12.16L125.36-12.16Q125.36-15.41 126.45-18.04 127.55-20.68 129.4-22.52 131.24-24.37 133.67-25.37 136.1-26.37 138.74-26.37L138.74-26.37Q140.93-26.37 142.82-25.65 144.72-24.93 146.1-23.51 147.48-22.09 148.26-19.97 149.04-17.85 149.04-15.04L149.04-15.04Q149.04-14.36 148.98-13.59 148.92-12.82 148.77-12.08L148.77-12.08 131.48-12.08Q131.48-10.11 132.18-8.59 132.88-7.08 134.15-6.07 135.41-5.05 137.2-4.53 138.98-4 141.13-4L141.13-4Q141.74-4 142.56-4.05 143.37-4.1 144.3-4.25 145.23-4.39 146.21-4.65 147.18-4.91 148.11-5.32L148.11-5.32ZM131.48-14.97L143.54-14.97Q143.54-16.75 143.09-18.09 142.64-19.43 141.86-20.34 141.08-21.24 140.04-21.69 139-22.14 137.81-22.14L137.81-22.14Q136.46-22.14 135.32-21.61 134.17-21.07 133.32-20.1 132.46-19.14 131.97-17.82 131.48-16.5 131.48-14.97L131.48-14.97ZM173.45 0L167.39 0 167.39-35.77 173.45-35.77 173.45-20.75 191.22-20.75 191.22-35.77 197.28-35.77 197.28 0 191.22 0 191.22-16.46 173.45-16.46 173.45 0ZM217.32 0.49L217.32 0.49Q214.26 0.49 211.93-0.54 209.6-1.56 208.01-3.31 206.43-5.05 205.61-7.35 204.79-9.64 204.79-12.21L204.79-12.21Q204.79-15.16 205.84-17.74 206.89-20.31 208.78-22.23 210.68-24.15 213.29-25.26 215.9-26.37 219.03-26.37L219.03-26.37Q222.08-26.37 224.42-25.34 226.76-24.32 228.35-22.56 229.94-20.8 230.76-18.49 231.57-16.19 231.57-13.62L231.57-13.62Q231.57-10.64 230.51-8.07 229.45-5.49 227.55-3.59 225.64-1.68 223.03-0.6 220.42 0.49 217.32 0.49ZM218.34-3.74L218.34-3.74Q219.9-3.74 221.2-4.38 222.49-5.03 223.42-6.19 224.35-7.35 224.86-8.96 225.37-10.57 225.37-12.52L225.37-12.52Q225.37-14.43 224.87-16.16 224.37-17.9 223.42-19.23 222.47-20.56 221.1-21.35 219.73-22.14 218-22.14L218-22.14Q216.41-22.14 215.12-21.48 213.83-20.83 212.91-19.65 211.99-18.48 211.48-16.86 210.97-15.23 210.97-13.31L210.97-13.31Q210.97-11.38 211.47-9.64 211.97-7.91 212.92-6.59 213.87-5.27 215.24-4.5 216.61-3.74 218.34-3.74ZM238.16-8.62L238.16-25.88 244.07-25.88 244.07-9.55Q244.07-8.3 244.41-7.29 244.76-6.27 245.37-5.54 245.98-4.81 246.83-4.41 247.69-4 248.71-4L248.71-4Q249.59-4 250.43-4.3 251.27-4.59 252.06-5.07 252.84-5.54 253.54-6.16 254.25-6.79 254.89-7.47L254.89-7.47 254.89-25.88 260.8-25.88 260.8 0 256.01 0 255.13-4.37Q254.25-3.56 253.23-2.7 252.2-1.83 251.05-1.12 249.91-0.42 248.63 0.04 247.34 0.49 245.95 0.49L245.95 0.49Q244.36 0.49 242.95-0.15 241.53-0.78 240.47-1.95 239.41-3.13 238.79-4.81 238.16-6.49 238.16-8.62L238.16-8.62ZM267.31-1.22L268.36-5.66 268.8-5.93Q269.75-5.42 270.79-5 271.83-4.59 272.85-4.31 273.88-4.03 274.86-3.88 275.83-3.74 276.69-3.74L276.69-3.74Q278.91-3.74 280.17-4.66 281.42-5.59 281.42-7.03L281.42-7.03Q281.42-8.01 280.85-8.64 280.28-9.28 279.34-9.73 278.4-10.18 277.2-10.52 276-10.86 274.75-11.24 273.49-11.62 272.29-12.11 271.1-12.6 270.16-13.35 269.22-14.11 268.64-15.2 268.07-16.28 268.07-17.87L268.07-17.87Q268.07-19.65 268.84-21.22 269.61-22.78 271.03-23.91 272.46-25.05 274.5-25.71 276.54-26.37 279.08-26.37L279.08-26.37Q279.71-26.37 280.56-26.32 281.4-26.27 282.31-26.16 283.23-26.05 284.16-25.88 285.08-25.71 285.89-25.44L285.89-25.44 284.82-21.07 284.28-20.75Q283.55-21.12 282.7-21.39 281.86-21.66 281.02-21.81 280.18-21.97 279.38-22.06 278.59-22.14 277.98-22.14L277.98-22.14Q275.83-22.14 274.62-21.29 273.42-20.43 273.42-18.99L273.42-18.99Q273.42-17.99 274-17.35 274.59-16.7 275.53-16.25 276.47-15.8 277.69-15.47 278.91-15.14 280.17-14.76 281.42-14.38 282.64-13.89 283.86-13.4 284.8-12.65 285.74-11.89 286.33-10.79 286.92-9.69 286.92-8.08L286.92-8.08Q286.92-6.27 286.13-4.7 285.35-3.13 283.91-1.98 282.47-0.83 280.45-0.17 278.42 0.49 275.95 0.49L275.95 0.49Q273.93 0.49 271.66 0.05 269.39-0.39 267.31-1.22L267.31-1.22ZM314.6-5.32L314.6-2.37Q313.52-1.61 312.28-1.07 311.03-0.54 309.72-0.18 308.4 0.17 307.09 0.33 305.79 0.49 304.61 0.49L304.61 0.49Q301.9 0.49 299.57-0.34 297.24-1.17 295.52-2.78 293.8-4.39 292.82-6.75 291.85-9.11 291.85-12.16L291.85-12.16Q291.85-15.41 292.94-18.04 294.04-20.68 295.89-22.52 297.73-24.37 300.16-25.37 302.59-26.37 305.22-26.37L305.22-26.37Q307.42-26.37 309.31-25.65 311.21-24.93 312.58-23.51 313.96-22.09 314.75-19.97 315.53-17.85 315.53-15.04L315.53-15.04Q315.53-14.36 315.47-13.59 315.4-12.82 315.26-12.08L315.26-12.08 297.97-12.08Q297.97-10.11 298.67-8.59 299.36-7.08 300.63-6.07 301.9-5.05 303.69-4.53 305.47-4 307.62-4L307.62-4Q308.23-4 309.04-4.05 309.86-4.1 310.79-4.25 311.72-4.39 312.69-4.65 313.67-4.91 314.6-5.32L314.6-5.32ZM297.97-14.97L310.03-14.97Q310.03-16.75 309.58-18.09 309.13-19.43 308.35-20.34 307.57-21.24 306.53-21.69 305.49-22.14 304.3-22.14L304.3-22.14Q302.95-22.14 301.81-21.61 300.66-21.07 299.8-20.1 298.95-19.14 298.46-17.82 297.97-16.5 297.97-14.97L297.97-14.97Z" opacity="1" transform="matrix(1,0,0,1,0,0)" fill="black" class="wordmark-text-0" id="SvgjsPath1096"></path></svg></g></svg></g></svg></g></svg></g><g transform="matrix(1,0,0,1,94.08002181943651,0)"><svg viewBox="0 0 57.493473161126936 41.484254437918494" height="41.484254437918494" width="57.493473161126936"><g><svg xmlns="http://www.w3.org/2000/svg" xmlns:xlink="http://www.w3.org/1999/xlink" version="1.1" x="8" y="0" viewBox="13.991999999999997 14 72.01600000000002 72" enable-background="new 0 0 100 100" xml:space="preserve" height="41.484254437918494" width="41.493473161126936" class="icon-icon-0" data-fill-palette-color="accent" id="SvgjsSvg1095"><g fill="white"><path fill="white" d="M49.992 14c-19.86 0-36 16.14-36 36 0 19.74 15.9 35.76 35.58 36 0.06 0 0.06 0 0.12 0h0.3 35.161c1.14 0 1.14-1.62 0-1.62h-24.54c14.699-4.5 25.38-18.18 25.38-34.38C85.993 30.14 69.853 14 49.992 14L49.992 14zM49.992 15.62c19.021 0 34.381 15.36 34.381 34.38 0 19.02-15.36 34.38-34.381 34.38-19.02 0-34.38-15.36-34.38-34.38C15.612 30.98 30.972 15.62 49.992 15.62L49.992 15.62zM49.992 19.28c-16.98 0-30.72 13.74-30.72 30.72 0 16.98 13.74 30.72 30.72 30.72 16.98 0 30.721-13.739 30.721-30.72C80.713 33.02 66.973 19.28 49.992 19.28L49.992 19.28zM49.992 20.9c16.081 0 29.101 13.02 29.101 29.1s-13.02 29.1-29.101 29.1c-16.08 0-29.1-13.02-29.1-29.1S33.913 20.9 49.992 20.9L49.992 20.9zM49.992 23.72c-4.98 0-9 4.02-9 9s4.02 9 9 9c4.98 0 9.001-4.02 9.001-9S54.973 23.72 49.992 23.72L49.992 23.72zM49.992 25.28c4.141 0 7.44 3.3 7.44 7.44 0 4.08-3.3 7.44-7.44 7.44-4.14 0-7.44-3.36-7.44-7.44C42.552 28.58 45.853 25.28 49.992 25.28L49.992 25.28zM32.712 41c-4.98 0-9 4.02-9 9 0 4.98 4.02 9 9 9s9-4.02 9-9C41.712 45.02 37.692 41 32.712 41L32.712 41zM67.272 41c-4.979 0-9 4.02-9 9 0 4.98 4.021 9 9 9 4.98 0 9-4.02 9-9C76.272 45.02 72.253 41 67.272 41L67.272 41zM32.712 42.56c4.08 0 7.44 3.3 7.44 7.44 0 4.14-3.36 7.44-7.44 7.44-4.14 0-7.44-3.301-7.44-7.44C25.272 45.86 28.572 42.56 32.712 42.56L32.712 42.56zM67.272 42.56c4.141 0 7.44 3.3 7.44 7.44 0 4.14-3.3 7.44-7.44 7.44-4.08 0-7.439-3.301-7.439-7.44C59.833 45.86 63.192 42.56 67.272 42.56L67.272 42.56zM49.992 58.28c-4.98 0-9 4.02-9 9 0 4.979 4.02 9 9 9 4.98 0 9.001-4.021 9.001-9C58.993 62.3 54.973 58.28 49.992 58.28L49.992 58.28zM49.992 59.84c4.141 0 7.44 3.36 7.44 7.44 0 4.14-3.3 7.439-7.44 7.439-4.14 0-7.44-3.3-7.44-7.439C42.552 63.2 45.853 59.84 49.992 59.84L49.992 59.84z"></path></g></svg></g></svg></g><g><rect width="46.782553659436516" height="2.7070136591621345" y="37.77724077875636" x="151.57349498056345" fill="black"></rect><rect width="46.782553659436516" height="2.7070136591621345" y="37.77724077875636" x="47.297468159999994" fill="black"></rect></g></svg></g></svg></g><path d="M0 73.629L0 1 244.431 1 244.431 73.629 241.738 73.629 241.738 3.694 2.694 3.694 2.694 73.629 0 73.629M0 173.571L0 246.2 244.431 246.2 244.431 173.571 241.738 173.571 241.738 243.506 2.694 243.506 2.694 173.571 0 173.571" fill="black" stroke="transparent"></path></svg></g><defs><mask></mask></defs></svg><rect width="244.43135999999996" height="247.2" fill="black" stroke="none" visibility="hidden"></rect></g></mask><linearGradient x1="0" x2="1" y1="0.5" y2="0.5" id="aaadec88-0942-4835-9f30-1f8617cba3be"><stop stop-color="#ffa62e" offset="0"></stop><stop stop-color="#f71b3d" offset="1"></stop></linearGradient><rect width="244.43135999999996" height="247.2" fill="url(#aaadec88-0942-4835-9f30-1f8617cba3be)" mask="url(#fb95c1c9-ec02-4717-8584-b3385d355db6)" data-fill-palette-color="accent"></rect><mask id="4a138708-7e70-4e26-aff2-1754f9215384"><g id="SvgjsG1112"><svg viewBox="0 0 244.43135999999996 247.2" height="247.2" width="244.43135999999996"><g><svg></svg></g><g><svg viewBox="0 0 244.43135999999996 247.2" height="247.2" width="244.43135999999996"><g transform="matrix(1,0,0,1,0,79.62902252505344)"><svg viewBox="0 0 244.43135999999996 87.94195494989309" height="87.94195494989309" width="244.43135999999996"><g><svg viewBox="0 0 245.65351679999995 88.38166472464255" height="87.94195494989309" width="244.43135999999996"><g><rect width="245.65351679999995" height="2.7070136591621345" x="0" y="48.57067762944241" fill="black" opacity="1" stroke-width="0" stroke="transparent" fill-opacity="1" class="rect-qz-0" rx="1%" id="SvgjsRect1111" data-palette-color="#ef5b2a"></rect></g><g transform="matrix(1,0,0,1,0.6110783999999825,58.36411448012846)"><svg viewBox="0 0 244.43135999999998 30.017550244514105" height="30.017550244514105" width="244.43135999999998"><g id="SvgjsG1110"><svg viewBox="0 0 244.43135999999998 30.017550244514105" height="30.017550244514105" width="244.43135999999998" id="SvgjsSvg1109"><g><svg viewBox="0 0 244.43135999999998 30.017550244514105" height="30.017550244514105" width="244.43135999999998"><g transform="matrix(1,0,0,1,0,0)"><svg width="244.43135999999998" viewBox="4.03 -37.77 311.5 38.260000000000005" height="30.017550244514105" data-palette-color="#ef5b2a"><path d="M9.3 0L4.03 0 6.76-35.77 15.63-35.77 23.29-12.92 24.66-7.59 25.15-7.59 26.54-12.92 34.23-35.77 43.33-35.77 46.09 0 39.84 0 38.18-26.73 38.04-32.3 37.55-32.3 36.08-26.98 27.37-0.73 21.85-0.73 13.06-26.93 11.55-32.3 11.06-32.3 10.94-26.78 9.3 0ZM64.99 0.49L64.99 0.49Q61.94 0.49 59.6-0.54 57.27-1.56 55.69-3.31 54.1-5.05 53.28-7.35 52.46-9.64 52.46-12.21L52.46-12.21Q52.46-15.16 53.51-17.74 54.56-20.31 56.46-22.23 58.35-24.15 60.96-25.26 63.57-26.37 66.7-26.37L66.7-26.37Q69.75-26.37 72.09-25.34 74.44-24.32 76.02-22.56 77.61-20.8 78.43-18.49 79.25-16.19 79.25-13.62L79.25-13.62Q79.25-10.64 78.18-8.07 77.12-5.49 75.22-3.59 73.31-1.68 70.7-0.6 68.09 0.49 64.99 0.49ZM66.01-3.74L66.01-3.74Q67.58-3.74 68.87-4.38 70.16-5.03 71.09-6.19 72.02-7.35 72.53-8.96 73.04-10.57 73.04-12.52L73.04-12.52Q73.04-14.43 72.54-16.16 72.04-17.9 71.09-19.23 70.14-20.56 68.77-21.35 67.4-22.14 65.67-22.14L65.67-22.14Q64.08-22.14 62.79-21.48 61.5-20.83 60.58-19.65 59.67-18.48 59.15-16.86 58.64-15.23 58.64-13.31L58.64-13.31Q58.64-11.38 59.14-9.64 59.64-7.91 60.59-6.59 61.55-5.27 62.91-4.5 64.28-3.74 66.01-3.74ZM91.79 0L82.54-25.88 89.08-25.88 94.18-8.98 95.23-4.49 95.72-4.49 96.72-8.98 101.9-25.88 107.49-25.88 98.21 0 91.79 0ZM112.81 0L112.81-25.88 118.74-25.88 118.74 0 112.81 0ZM115.76-30.98L115.76-30.98Q114.98-30.98 114.34-31.24 113.69-31.49 113.21-31.93 112.74-32.37 112.48-32.98 112.22-33.59 112.22-34.3L112.22-34.3Q112.22-35.03 112.5-35.66 112.79-36.28 113.29-36.76 113.79-37.23 114.46-37.5 115.13-37.77 115.91-37.77L115.91-37.77Q116.67-37.77 117.3-37.5 117.94-37.23 118.4-36.78 118.86-36.33 119.13-35.71 119.4-35.08 119.4-34.38L119.4-34.38Q119.4-33.64 119.12-33.02 118.84-32.4 118.34-31.95 117.84-31.49 117.18-31.24 116.52-30.98 115.76-30.98ZM148.11-5.32L148.11-2.37Q147.04-1.61 145.79-1.07 144.55-0.54 143.23-0.18 141.91 0.17 140.6 0.33 139.3 0.49 138.12 0.49L138.12 0.49Q135.41 0.49 133.08-0.34 130.75-1.17 129.03-2.78 127.31-4.39 126.33-6.75 125.36-9.11 125.36-12.16L125.36-12.16Q125.36-15.41 126.45-18.04 127.55-20.68 129.4-22.52 131.24-24.37 133.67-25.37 136.1-26.37 138.74-26.37L138.74-26.37Q140.93-26.37 142.82-25.65 144.72-24.93 146.1-23.51 147.48-22.09 148.26-19.97 149.04-17.85 149.04-15.04L149.04-15.04Q149.04-14.36 148.98-13.59 148.92-12.82 148.77-12.08L148.77-12.08 131.48-12.08Q131.48-10.11 132.18-8.59 132.88-7.08 134.15-6.07 135.41-5.05 137.2-4.53 138.98-4 141.13-4L141.13-4Q141.74-4 142.56-4.05 143.37-4.1 144.3-4.25 145.23-4.39 146.21-4.65 147.18-4.91 148.11-5.32L148.11-5.32ZM131.48-14.97L143.54-14.97Q143.54-16.75 143.09-18.09 142.64-19.43 141.86-20.34 141.08-21.24 140.04-21.69 139-22.14 137.81-22.14L137.81-22.14Q136.46-22.14 135.32-21.61 134.17-21.07 133.32-20.1 132.46-19.14 131.97-17.82 131.48-16.5 131.48-14.97L131.48-14.97ZM173.45 0L167.39 0 167.39-35.77 173.45-35.77 173.45-20.75 191.22-20.75 191.22-35.77 197.28-35.77 197.28 0 191.22 0 191.22-16.46 173.45-16.46 173.45 0ZM217.32 0.49L217.32 0.49Q214.26 0.49 211.93-0.54 209.6-1.56 208.01-3.31 206.43-5.05 205.61-7.35 204.79-9.64 204.79-12.21L204.79-12.21Q204.79-15.16 205.84-17.74 206.89-20.31 208.78-22.23 210.68-24.15 213.29-25.26 215.9-26.37 219.03-26.37L219.03-26.37Q222.08-26.37 224.42-25.34 226.76-24.32 228.35-22.56 229.94-20.8 230.76-18.49 231.57-16.19 231.57-13.62L231.57-13.62Q231.57-10.64 230.51-8.07 229.45-5.49 227.55-3.59 225.64-1.68 223.03-0.6 220.42 0.49 217.32 0.49ZM218.34-3.74L218.34-3.74Q219.9-3.74 221.2-4.38 222.49-5.03 223.42-6.19 224.35-7.35 224.86-8.96 225.37-10.57 225.37-12.52L225.37-12.52Q225.37-14.43 224.87-16.16 224.37-17.9 223.42-19.23 222.47-20.56 221.1-21.35 219.73-22.14 218-22.14L218-22.14Q216.41-22.14 215.12-21.48 213.83-20.83 212.91-19.65 211.99-18.48 211.48-16.86 210.97-15.23 210.97-13.31L210.97-13.31Q210.97-11.38 211.47-9.64 211.97-7.91 212.92-6.59 213.87-5.27 215.24-4.5 216.61-3.74 218.34-3.74ZM238.16-8.62L238.16-25.88 244.07-25.88 244.07-9.55Q244.07-8.3 244.41-7.29 244.76-6.27 245.37-5.54 245.98-4.81 246.83-4.41 247.69-4 248.71-4L248.71-4Q249.59-4 250.43-4.3 251.27-4.59 252.06-5.07 252.84-5.54 253.54-6.16 254.25-6.79 254.89-7.47L254.89-7.47 254.89-25.88 260.8-25.88 260.8 0 256.01 0 255.13-4.37Q254.25-3.56 253.23-2.7 252.2-1.83 251.05-1.12 249.91-0.42 248.63 0.04 247.34 0.49 245.95 0.49L245.95 0.49Q244.36 0.49 242.95-0.15 241.53-0.78 240.47-1.95 239.41-3.13 238.79-4.81 238.16-6.49 238.16-8.62L238.16-8.62ZM267.31-1.22L268.36-5.66 268.8-5.93Q269.75-5.42 270.79-5 271.83-4.59 272.85-4.31 273.88-4.03 274.86-3.88 275.83-3.74 276.69-3.74L276.69-3.74Q278.91-3.74 280.17-4.66 281.42-5.59 281.42-7.03L281.42-7.03Q281.42-8.01 280.85-8.64 280.28-9.28 279.34-9.73 278.4-10.18 277.2-10.52 276-10.86 274.75-11.24 273.49-11.62 272.29-12.11 271.1-12.6 270.16-13.35 269.22-14.11 268.64-15.2 268.07-16.28 268.07-17.87L268.07-17.87Q268.07-19.65 268.84-21.22 269.61-22.78 271.03-23.91 272.46-25.05 274.5-25.71 276.54-26.37 279.08-26.37L279.08-26.37Q279.71-26.37 280.56-26.32 281.4-26.27 282.31-26.16 283.23-26.05 284.16-25.88 285.08-25.71 285.89-25.44L285.89-25.44 284.82-21.07 284.28-20.75Q283.55-21.12 282.7-21.39 281.86-21.66 281.02-21.81 280.18-21.97 279.38-22.06 278.59-22.14 277.98-22.14L277.98-22.14Q275.83-22.14 274.62-21.29 273.42-20.43 273.42-18.99L273.42-18.99Q273.42-17.99 274-17.35 274.59-16.7 275.53-16.25 276.47-15.8 277.69-15.47 278.91-15.14 280.17-14.76 281.42-14.38 282.64-13.89 283.86-13.4 284.8-12.65 285.74-11.89 286.33-10.79 286.92-9.69 286.92-8.08L286.92-8.08Q286.92-6.27 286.13-4.7 285.35-3.13 283.91-1.98 282.47-0.83 280.45-0.17 278.42 0.49 275.95 0.49L275.95 0.49Q273.93 0.49 271.66 0.05 269.39-0.39 267.31-1.22L267.31-1.22ZM314.6-5.32L314.6-2.37Q313.52-1.61 312.28-1.07 311.03-0.54 309.72-0.18 308.4 0.17 307.09 0.33 305.79 0.49 304.61 0.49L304.61 0.49Q301.9 0.49 299.57-0.34 297.24-1.17 295.52-2.78 293.8-4.39 292.82-6.75 291.85-9.11 291.85-12.16L291.85-12.16Q291.85-15.41 292.94-18.04 294.04-20.68 295.89-22.52 297.73-24.37 300.16-25.37 302.59-26.37 305.22-26.37L305.22-26.37Q307.42-26.37 309.31-25.65 311.21-24.93 312.58-23.51 313.96-22.09 314.75-19.97 315.53-17.85 315.53-15.04L315.53-15.04Q315.53-14.36 315.47-13.59 315.4-12.82 315.26-12.08L315.26-12.08 297.97-12.08Q297.97-10.11 298.67-8.59 299.36-7.08 300.63-6.07 301.9-5.05 303.69-4.53 305.47-4 307.62-4L307.62-4Q308.23-4 309.04-4.05 309.86-4.1 310.79-4.25 311.72-4.39 312.69-4.65 313.67-4.91 314.6-5.32L314.6-5.32ZM297.97-14.97L310.03-14.97Q310.03-16.75 309.58-18.09 309.13-19.43 308.35-20.34 307.57-21.24 306.53-21.69 305.49-22.14 304.3-22.14L304.3-22.14Q302.95-22.14 301.81-21.61 300.66-21.07 299.8-20.1 298.95-19.14 298.46-17.82 297.97-16.5 297.97-14.97L297.97-14.97Z" opacity="1" transform="matrix(1,0,0,1,0,0)" fill="black" class="wordmark-text-0" id="SvgjsPath1108"></path></svg></g></svg></g></svg></g></svg></g><g transform="matrix(1,0,0,1,94.08002181943651,0)"><svg viewBox="0 0 57.493473161126936 41.484254437918494" height="41.484254437918494" width="57.493473161126936"><g><svg xmlns="http://www.w3.org/2000/svg" xmlns:xlink="http://www.w3.org/1999/xlink" version="1.1" x="8" y="0" viewBox="13.991999999999997 14 72.01600000000002 72" enable-background="new 0 0 100 100" xml:space="preserve" height="41.484254437918494" width="41.493473161126936" class="icon-icon-0" data-fill-palette-color="accent" id="SvgjsSvg1107"></svg></g></svg></g><g><rect width="46.782553659436516" height="2.7070136591621345" y="37.77724077875636" x="151.57349498056345" fill="black"></rect><rect width="46.782553659436516" height="2.7070136591621345" y="37.77724077875636" x="47.297468159999994" fill="black"></rect></g></svg></g></svg></g><path d="M0 73.629L0 1 244.431 1 244.431 73.629 241.738 73.629 241.738 3.694 2.694 3.694 2.694 73.629 0 73.629M0 173.571L0 246.2 244.431 246.2 244.431 173.571 241.738 173.571 241.738 243.506 2.694 243.506 2.694 173.571 0 173.571" fill="white" stroke="transparent"></path></svg></g><defs><mask></mask></defs><mask><g id="SvgjsG1106"><svg viewBox="0 0 244.43135999999996 247.2" height="247.2" width="244.43135999999996"><g><svg></svg></g><g><svg viewBox="0 0 244.43135999999996 247.2" height="247.2" width="244.43135999999996"><g transform="matrix(1,0,0,1,0,79.62902252505344)"><svg viewBox="0 0 244.43135999999996 87.94195494989309" height="87.94195494989309" width="244.43135999999996"><g><svg viewBox="0 0 245.65351679999995 88.38166472464255" height="87.94195494989309" width="244.43135999999996"><g><rect width="245.65351679999995" height="2.7070136591621345" x="0" y="48.57067762944241" fill="black" opacity="1" stroke-width="0" stroke="transparent" fill-opacity="1" class="rect-qz-0" rx="1%" id="SvgjsRect1105" data-palette-color="#ef5b2a"></rect></g><g transform="matrix(1,0,0,1,0.6110783999999825,58.36411448012846)"><svg viewBox="0 0 244.43135999999998 30.017550244514105" height="30.017550244514105" width="244.43135999999998"><g id="SvgjsG1104"><svg viewBox="0 0 244.43135999999998 30.017550244514105" height="30.017550244514105" width="244.43135999999998" id="SvgjsSvg1103"><g><svg viewBox="0 0 244.43135999999998 30.017550244514105" height="30.017550244514105" width="244.43135999999998"><g transform="matrix(1,0,0,1,0,0)"><svg width="244.43135999999998" viewBox="4.03 -37.77 311.5 38.260000000000005" height="30.017550244514105" data-palette-color="#ef5b2a"><path d="M9.3 0L4.03 0 6.76-35.77 15.63-35.77 23.29-12.92 24.66-7.59 25.15-7.59 26.54-12.92 34.23-35.77 43.33-35.77 46.09 0 39.84 0 38.18-26.73 38.04-32.3 37.55-32.3 36.08-26.98 27.37-0.73 21.85-0.73 13.06-26.93 11.55-32.3 11.06-32.3 10.94-26.78 9.3 0ZM64.99 0.49L64.99 0.49Q61.94 0.49 59.6-0.54 57.27-1.56 55.69-3.31 54.1-5.05 53.28-7.35 52.46-9.64 52.46-12.21L52.46-12.21Q52.46-15.16 53.51-17.74 54.56-20.31 56.46-22.23 58.35-24.15 60.96-25.26 63.57-26.37 66.7-26.37L66.7-26.37Q69.75-26.37 72.09-25.34 74.44-24.32 76.02-22.56 77.61-20.8 78.43-18.49 79.25-16.19 79.25-13.62L79.25-13.62Q79.25-10.64 78.18-8.07 77.12-5.49 75.22-3.59 73.31-1.68 70.7-0.6 68.09 0.49 64.99 0.49ZM66.01-3.74L66.01-3.74Q67.58-3.74 68.87-4.38 70.16-5.03 71.09-6.19 72.02-7.35 72.53-8.96 73.04-10.57 73.04-12.52L73.04-12.52Q73.04-14.43 72.54-16.16 72.04-17.9 71.09-19.23 70.14-20.56 68.77-21.35 67.4-22.14 65.67-22.14L65.67-22.14Q64.08-22.14 62.79-21.48 61.5-20.83 60.58-19.65 59.67-18.48 59.15-16.86 58.64-15.23 58.64-13.31L58.64-13.31Q58.64-11.38 59.14-9.64 59.64-7.91 60.59-6.59 61.55-5.27 62.91-4.5 64.28-3.74 66.01-3.74ZM91.79 0L82.54-25.88 89.08-25.88 94.18-8.98 95.23-4.49 95.72-4.49 96.72-8.98 101.9-25.88 107.49-25.88 98.21 0 91.79 0ZM112.81 0L112.81-25.88 118.74-25.88 118.74 0 112.81 0ZM115.76-30.98L115.76-30.98Q114.98-30.98 114.34-31.24 113.69-31.49 113.21-31.93 112.74-32.37 112.48-32.98 112.22-33.59 112.22-34.3L112.22-34.3Q112.22-35.03 112.5-35.66 112.79-36.28 113.29-36.76 113.79-37.23 114.46-37.5 115.13-37.77 115.91-37.77L115.91-37.77Q116.67-37.77 117.3-37.5 117.94-37.23 118.4-36.78 118.86-36.33 119.13-35.71 119.4-35.08 119.4-34.38L119.4-34.38Q119.4-33.64 119.12-33.02 118.84-32.4 118.34-31.95 117.84-31.49 117.18-31.24 116.52-30.98 115.76-30.98ZM148.11-5.32L148.11-2.37Q147.04-1.61 145.79-1.07 144.55-0.54 143.23-0.18 141.91 0.17 140.6 0.33 139.3 0.49 138.12 0.49L138.12 0.49Q135.41 0.49 133.08-0.34 130.75-1.17 129.03-2.78 127.31-4.39 126.33-6.75 125.36-9.11 125.36-12.16L125.36-12.16Q125.36-15.41 126.45-18.04 127.55-20.68 129.4-22.52 131.24-24.37 133.67-25.37 136.1-26.37 138.74-26.37L138.74-26.37Q140.93-26.37 142.82-25.65 144.72-24.93 146.1-23.51 147.48-22.09 148.26-19.97 149.04-17.85 149.04-15.04L149.04-15.04Q149.04-14.36 148.98-13.59 148.92-12.82 148.77-12.08L148.77-12.08 131.48-12.08Q131.48-10.11 132.18-8.59 132.88-7.08 134.15-6.07 135.41-5.05 137.2-4.53 138.98-4 141.13-4L141.13-4Q141.74-4 142.56-4.05 143.37-4.1 144.3-4.25 145.23-4.39 146.21-4.65 147.18-4.91 148.11-5.32L148.11-5.32ZM131.48-14.97L143.54-14.97Q143.54-16.75 143.09-18.09 142.64-19.43 141.86-20.34 141.08-21.24 140.04-21.69 139-22.14 137.81-22.14L137.81-22.14Q136.46-22.14 135.32-21.61 134.17-21.07 133.32-20.1 132.46-19.14 131.97-17.82 131.48-16.5 131.48-14.97L131.48-14.97ZM173.45 0L167.39 0 167.39-35.77 173.45-35.77 173.45-20.75 191.22-20.75 191.22-35.77 197.28-35.77 197.28 0 191.22 0 191.22-16.46 173.45-16.46 173.45 0ZM217.32 0.49L217.32 0.49Q214.26 0.49 211.93-0.54 209.6-1.56 208.01-3.31 206.43-5.05 205.61-7.35 204.79-9.64 204.79-12.21L204.79-12.21Q204.79-15.16 205.84-17.74 206.89-20.31 208.78-22.23 210.68-24.15 213.29-25.26 215.9-26.37 219.03-26.37L219.03-26.37Q222.08-26.37 224.42-25.34 226.76-24.32 228.35-22.56 229.94-20.8 230.76-18.49 231.57-16.19 231.57-13.62L231.57-13.62Q231.57-10.64 230.51-8.07 229.45-5.49 227.55-3.59 225.64-1.68 223.03-0.6 220.42 0.49 217.32 0.49ZM218.34-3.74L218.34-3.74Q219.9-3.74 221.2-4.38 222.49-5.03 223.42-6.19 224.35-7.35 224.86-8.96 225.37-10.57 225.37-12.52L225.37-12.52Q225.37-14.43 224.87-16.16 224.37-17.9 223.42-19.23 222.47-20.56 221.1-21.35 219.73-22.14 218-22.14L218-22.14Q216.41-22.14 215.12-21.48 213.83-20.83 212.91-19.65 211.99-18.48 211.48-16.86 210.97-15.23 210.97-13.31L210.97-13.31Q210.97-11.38 211.47-9.64 211.97-7.91 212.92-6.59 213.87-5.27 215.24-4.5 216.61-3.74 218.34-3.74ZM238.16-8.62L238.16-25.88 244.07-25.88 244.07-9.55Q244.07-8.3 244.41-7.29 244.76-6.27 245.37-5.54 245.98-4.81 246.83-4.41 247.69-4 248.71-4L248.71-4Q249.59-4 250.43-4.3 251.27-4.59 252.06-5.07 252.84-5.54 253.54-6.16 254.25-6.79 254.89-7.47L254.89-7.47 254.89-25.88 260.8-25.88 260.8 0 256.01 0 255.13-4.37Q254.25-3.56 253.23-2.7 252.2-1.83 251.05-1.12 249.91-0.42 248.63 0.04 247.34 0.49 245.95 0.49L245.95 0.49Q244.36 0.49 242.95-0.15 241.53-0.78 240.47-1.95 239.41-3.13 238.79-4.81 238.16-6.49 238.16-8.62L238.16-8.62ZM267.31-1.22L268.36-5.66 268.8-5.93Q269.75-5.42 270.79-5 271.83-4.59 272.85-4.31 273.88-4.03 274.86-3.88 275.83-3.74 276.69-3.74L276.69-3.74Q278.91-3.74 280.17-4.66 281.42-5.59 281.42-7.03L281.42-7.03Q281.42-8.01 280.85-8.64 280.28-9.28 279.34-9.73 278.4-10.18 277.2-10.52 276-10.86 274.75-11.24 273.49-11.62 272.29-12.11 271.1-12.6 270.16-13.35 269.22-14.11 268.64-15.2 268.07-16.28 268.07-17.87L268.07-17.87Q268.07-19.65 268.84-21.22 269.61-22.78 271.03-23.91 272.46-25.05 274.5-25.71 276.54-26.37 279.08-26.37L279.08-26.37Q279.71-26.37 280.56-26.32 281.4-26.27 282.31-26.16 283.23-26.05 284.16-25.88 285.08-25.71 285.89-25.44L285.89-25.44 284.82-21.07 284.28-20.75Q283.55-21.12 282.7-21.39 281.86-21.66 281.02-21.81 280.18-21.97 279.38-22.06 278.59-22.14 277.98-22.14L277.98-22.14Q275.83-22.14 274.62-21.29 273.42-20.43 273.42-18.99L273.42-18.99Q273.42-17.99 274-17.35 274.59-16.7 275.53-16.25 276.47-15.8 277.69-15.47 278.91-15.14 280.17-14.76 281.42-14.38 282.64-13.89 283.86-13.4 284.8-12.65 285.74-11.89 286.33-10.79 286.92-9.69 286.92-8.08L286.92-8.08Q286.92-6.27 286.13-4.7 285.35-3.13 283.91-1.98 282.47-0.83 280.45-0.17 278.42 0.49 275.95 0.49L275.95 0.49Q273.93 0.49 271.66 0.05 269.39-0.39 267.31-1.22L267.31-1.22ZM314.6-5.32L314.6-2.37Q313.52-1.61 312.28-1.07 311.03-0.54 309.72-0.18 308.4 0.17 307.09 0.33 305.79 0.49 304.61 0.49L304.61 0.49Q301.9 0.49 299.57-0.34 297.24-1.17 295.52-2.78 293.8-4.39 292.82-6.75 291.85-9.11 291.85-12.16L291.85-12.16Q291.85-15.41 292.94-18.04 294.04-20.68 295.89-22.52 297.73-24.37 300.16-25.37 302.59-26.37 305.22-26.37L305.22-26.37Q307.42-26.37 309.31-25.65 311.21-24.93 312.58-23.51 313.96-22.09 314.75-19.97 315.53-17.85 315.53-15.04L315.53-15.04Q315.53-14.36 315.47-13.59 315.4-12.82 315.26-12.08L315.26-12.08 297.97-12.08Q297.97-10.11 298.67-8.59 299.36-7.08 300.63-6.07 301.9-5.05 303.69-4.53 305.47-4 307.62-4L307.62-4Q308.23-4 309.04-4.05 309.86-4.1 310.79-4.25 311.72-4.39 312.69-4.65 313.67-4.91 314.6-5.32L314.6-5.32ZM297.97-14.97L310.03-14.97Q310.03-16.75 309.58-18.09 309.13-19.43 308.35-20.34 307.57-21.24 306.53-21.69 305.49-22.14 304.3-22.14L304.3-22.14Q302.95-22.14 301.81-21.61 300.66-21.07 299.8-20.1 298.95-19.14 298.46-17.82 297.97-16.5 297.97-14.97L297.97-14.97Z" opacity="1" transform="matrix(1,0,0,1,0,0)" fill="black" class="wordmark-text-0" id="SvgjsPath1102"></path></svg></g></svg></g></svg></g></svg></g><g transform="matrix(1,0,0,1,94.08002181943651,0)"><svg viewBox="0 0 57.493473161126936 41.484254437918494" height="41.484254437918494" width="57.493473161126936"><g><svg xmlns="http://www.w3.org/2000/svg" xmlns:xlink="http://www.w3.org/1999/xlink" version="1.1" x="8" y="0" viewBox="13.991999999999997 14 72.01600000000002 72" enable-background="new 0 0 100 100" xml:space="preserve" height="41.484254437918494" width="41.493473161126936" class="icon-icon-0" data-fill-palette-color="accent" id="SvgjsSvg1101"><g fill="black"><path fill="black" d="M49.992 14c-19.86 0-36 16.14-36 36 0 19.74 15.9 35.76 35.58 36 0.06 0 0.06 0 0.12 0h0.3 35.161c1.14 0 1.14-1.62 0-1.62h-24.54c14.699-4.5 25.38-18.18 25.38-34.38C85.993 30.14 69.853 14 49.992 14L49.992 14zM49.992 15.62c19.021 0 34.381 15.36 34.381 34.38 0 19.02-15.36 34.38-34.381 34.38-19.02 0-34.38-15.36-34.38-34.38C15.612 30.98 30.972 15.62 49.992 15.62L49.992 15.62zM49.992 19.28c-16.98 0-30.72 13.74-30.72 30.72 0 16.98 13.74 30.72 30.72 30.72 16.98 0 30.721-13.739 30.721-30.72C80.713 33.02 66.973 19.28 49.992 19.28L49.992 19.28zM49.992 20.9c16.081 0 29.101 13.02 29.101 29.1s-13.02 29.1-29.101 29.1c-16.08 0-29.1-13.02-29.1-29.1S33.913 20.9 49.992 20.9L49.992 20.9zM49.992 23.72c-4.98 0-9 4.02-9 9s4.02 9 9 9c4.98 0 9.001-4.02 9.001-9S54.973 23.72 49.992 23.72L49.992 23.72zM49.992 25.28c4.141 0 7.44 3.3 7.44 7.44 0 4.08-3.3 7.44-7.44 7.44-4.14 0-7.44-3.36-7.44-7.44C42.552 28.58 45.853 25.28 49.992 25.28L49.992 25.28zM32.712 41c-4.98 0-9 4.02-9 9 0 4.98 4.02 9 9 9s9-4.02 9-9C41.712 45.02 37.692 41 32.712 41L32.712 41zM67.272 41c-4.979 0-9 4.02-9 9 0 4.98 4.021 9 9 9 4.98 0 9-4.02 9-9C76.272 45.02 72.253 41 67.272 41L67.272 41zM32.712 42.56c4.08 0 7.44 3.3 7.44 7.44 0 4.14-3.36 7.44-7.44 7.44-4.14 0-7.44-3.301-7.44-7.44C25.272 45.86 28.572 42.56 32.712 42.56L32.712 42.56zM67.272 42.56c4.141 0 7.44 3.3 7.44 7.44 0 4.14-3.3 7.44-7.44 7.44-4.08 0-7.439-3.301-7.439-7.44C59.833 45.86 63.192 42.56 67.272 42.56L67.272 42.56zM49.992 58.28c-4.98 0-9 4.02-9 9 0 4.979 4.02 9 9 9 4.98 0 9.001-4.021 9.001-9C58.993 62.3 54.973 58.28 49.992 58.28L49.992 58.28zM49.992 59.84c4.141 0 7.44 3.36 7.44 7.44 0 4.14-3.3 7.439-7.44 7.439-4.14 0-7.44-3.3-7.44-7.439C42.552 63.2 45.853 59.84 49.992 59.84L49.992 59.84z"></path></g></svg></g></svg></g><g><rect width="46.782553659436516" height="2.7070136591621345" y="37.77724077875636" x="151.57349498056345" fill="black"></rect><rect width="46.782553659436516" height="2.7070136591621345" y="37.77724077875636" x="47.297468159999994" fill="black"></rect></g></svg></g></svg></g><path d="M0 73.629L0 1 244.431 1 244.431 73.629 241.738 73.629 241.738 3.694 2.694 3.694 2.694 73.629 0 73.629M0 173.571L0 246.2 244.431 246.2 244.431 173.571 241.738 173.571 241.738 243.506 2.694 243.506 2.694 173.571 0 173.571" fill="black" stroke="transparent"></path></svg></g><defs><mask></mask></defs></svg><rect width="244.43135999999996" height="247.2" fill="black" stroke="none" visibility="hidden"></rect></g></mask></svg><rect width="244.43135999999996" height="247.2" fill="black" stroke="none" visibility="hidden"></rect></g></mask><linearGradient x1="0" x2="1" y1="0.5" y2="0.5" id="5de075aa-79b1-4578-af48-5671e09b0316"><stop stop-color="#ffa62e" offset="0"></stop><stop stop-color="#f71b3d" offset="1"></stop></linearGradient></svg><rect width="244.43135999999996" height="247.2" fill="none" stroke="none" visibility="hidden"></rect></g></svg></g></svg>